<svg width="16" height="16" viewBox="0 0 16 16" fill="none" xmlns="http://www.w3.org/2000/svg">
<path fill-rule="evenodd" clip-rule="evenodd" d="M1.59229 10C1.59229 11.657 4.27929 13 7.59229 13C10.9053 13 13.5923 11.657 13.5923 10C13.5923 9.388 13.2213 8.82 12.5923 8.346V7C12.5923 4.935 11.3383 3.163 9.55129 2.4C9.67112 1.8117 9.52042 1.20068 9.14077 0.735563C8.76113 0.270451 8.19267 0.000422536 7.59229 0C6.9919 0.000422536 6.42344 0.270451 6.0438 0.735563C5.66415 1.20068 5.51345 1.8117 5.63329 2.4C3.84528 3.163 2.59229 4.935 2.59229 7V8.346C1.96329 8.82 1.59229 9.388 1.59229 10ZM9.57629 13.84C8.94428 13.934 8.28629 14 7.59229 14C6.89828 14 6.24129 13.934 5.60828 13.84C5.60668 13.8617 5.60379 13.8829 5.6009 13.904C5.59659 13.9356 5.59229 13.9671 5.59229 14C5.59229 15.104 6.48829 16 7.59229 16C8.69629 16 9.59229 15.104 9.59229 14C9.59229 13.9671 9.58798 13.9356 9.58367 13.904C9.58078 13.8829 9.57789 13.8617 9.57629 13.84Z" fill="#EDD556"/>
</svg>
