<svg width="16" height="16" viewBox="0 0 16 16" fill="none" xmlns="http://www.w3.org/2000/svg">
<path fill-rule="evenodd" clip-rule="evenodd" d="M15 3C15 2.44772 14.5523 2 14 2H13V1C13 0.447715 12.5523 0 12 0C11.4477 0 11 0.447715 11 1V2H9V1C9 0.447715 8.55228 0 8 0C7.44772 0 7 0.447715 7 1V2H5V1C5 0.447715 4.55228 0 4 0C3.44772 0 3 0.447715 3 1V2H2C1.44772 2 1 2.44772 1 3V15C1 15.5523 1.44772 16 2 16H14C14.5523 16 15 15.5523 15 15V3ZM3 7V6H13V7H3ZM3 9V10H13V9H3ZM3 13V12H13V13H3Z" fill="#726CEE"/>
</svg>
