<svg id="Calque_1" data-name="Calque 1" xmlns="http://www.w3.org/2000/svg" xmlns:xlink="http://www.w3.org/1999/xlink" viewBox="0 0 195.2277 192"><defs><style>.cls-1,.cls-14,.cls-18{fill:#fff;}.cls-2{mask:url(#mask);}.cls-11,.cls-17,.cls-18,.cls-3,.cls-6,.cls-7{fill-rule:evenodd;}.cls-3{fill:url(#Dégradé_sans_nom);}.cls-4,.cls-5,.cls-6{fill:#5175ff;}.cls-14,.cls-15,.cls-5,.cls-7,.cls-8{isolation:isolate;}.cls-5{opacity:0.1522;}.cls-7,.cls-8{fill:#747b95;}.cls-7{opacity:0.5;}.cls-8{opacity:0.25;}.cls-9{fill:#333950;}.cls-10{mask:url(#mask-2);}.cls-11,.cls-12{fill:#fefefe;}.cls-13,.cls-14{opacity:0.15;}.cls-15{fill:none;stroke:#fff;stroke-linejoin:round;opacity:0.146;}.cls-16,.cls-17{fill:#5cfcd3;}.cls-19{fill:#7da7ff;}</style><mask id="mask" x="10.7948" y="17" width="101.9069" height="111" maskUnits="userSpaceOnUse"><g transform="translate(24.2277)"><g id="mask0_0_136" data-name="mask0 0 136"><rect class="cls-1" y="17" width="81" height="111" rx="4"/></g></g></mask><linearGradient id="Dégradé_sans_nom" x1="37.3981" y1="240.7588" x2="37.3981" y2="154.369" gradientTransform="matrix(1, 0, 0, -1, 0, 268)" gradientUnits="userSpaceOnUse"><stop offset="0" stop-color="#024aff" stop-opacity="0.148"/><stop offset="1" stop-color="#3b77cf" stop-opacity="0.01"/></linearGradient><mask id="mask-2" x="0" y="139" width="128.4187" height="53" maskUnits="userSpaceOnUse"><g transform="translate(24.2277)"><g id="mask1_0_136" data-name="mask1 0 136"><rect class="cls-1" y="139" width="81" height="53" rx="4"/></g></g></mask></defs><rect class="cls-1" x="24.2277" y="17" width="81" height="111" rx="4"/><g class="cls-2"><path class="cls-3" d="M-13.3167,103.461,20.4308,92.087,40.5,62.683l20.4308,6.4692L88.113,27.2412v86.39l-101.43-.359Z" transform="translate(24.2277)"/><path class="cls-4" d="M88.474,26.02V113.631h-.723v-85.17L61.0848,69.5779,40.6471,63.1066,20.6619,92.3883-13.2,103.801l-.2324-.681L20.2,91.7852,40.3523,62.2591l20.4244,6.4672Z" transform="translate(24.2277)"/><rect class="cls-5" x="64.7277" y="17" width="0.3616" height="89.8058"/><rect class="cls-5" x="44.4777" y="17" width="0.3616" height="89.8058"/><rect class="cls-5" x="85.3393" y="17" width="0.3616" height="89.8058"/><ellipse class="cls-4" cx="64.7277" cy="62.6214" rx="2.1696" ry="2.1553"/><path class="cls-6" d="M47.0089,62.6213A6.509,6.509,0,1,0,40.5,69.0873,6.4875,6.4875,0,0,0,47.0089,62.6213Zm-12.6562,0A6.1474,6.1474,0,1,1,40.5,68.7281,6.1271,6.1271,0,0,1,34.3527,62.6213Z" transform="translate(24.2277)"/><ellipse class="cls-4" cx="44.4777" cy="92.0777" rx="2.1696" ry="2.1553"/><ellipse class="cls-4" cx="85.3394" cy="69.0875" rx="2.1696" ry="2.1553"/><ellipse class="cls-4" cx="105.2277" cy="38.5533" rx="2.1696" ry="2.1553"/><ellipse class="cls-4" cx="24.2277" cy="98.9029" rx="2.1696" ry="2.1553"/><path class="cls-7" d="M38.2742,121.981a1.2465,1.2465,0,0,1-.8556.247l-.0388-.501q.5728,0,.5729-.485V118.64h.5943v2.566A.9955.9955,0,0,1,38.2742,121.981Zm1.7285-.474a.8721.8721,0,0,1-.3428.065.72.72,0,0,1-.4826-.158.5111.5111,0,0,1-.1874-.411.5689.5689,0,0,1,.1116-.345.7553.7553,0,0,1,.3079-.241,1.0646,1.0646,0,0,1,.4486-.089,1.4214,1.4214,0,0,1,.168.01c.059.006.1182.014.1778.025q-.0642-.315-.46-.315a.7923.7923,0,0,0-.4719.176l-.1923-.469a2.0106,2.0106,0,0,1,.3982-.143,1.6153,1.6153,0,0,1,.3729-.046,1.0664,1.0664,0,0,1,.4884.105.7729.7729,0,0,1,.3215.297.8625.8625,0,0,1,.1146.451v1.115h-.47l-.0369-.207A.7814.7814,0,0,1,40.0027,121.507Zm-.1816-.417a.3112.3112,0,0,1-.1971-.059.1877.1877,0,0,1-.0748-.155.1823.1823,0,0,1,.0923-.164.48.48,0,0,1,.2573-.058,1.0022,1.0022,0,0,1,.1622.013,1.1226,1.1226,0,0,1,.1544.037v.039a.3182.3182,0,0,1-.1136.247A.4081.4081,0,0,1,39.8211,121.09Zm1.9792-.534v.978h-.5594v-1.93H41.73l.0234.236a.783.783,0,0,1,.2748-.203.8658.8658,0,0,1,.3525-.071.6941.6941,0,0,1,.5419.223.8887.8887,0,0,1,.202.62v1.125h-.5613v-1.017q0-.47-.3535-.469a.3731.3731,0,0,0-.2962.133A.5612.5612,0,0,0,41.8,120.556Z" transform="translate(24.2277)"/><path class="cls-7" d="M17.7231,121.538a2.0235,2.0235,0,0,0,1.3188-.38,1.47,1.47,0,0,0,0-2.137,2.0291,2.0291,0,0,0-1.3188-.377h-.9167v2.894Zm.0136-.521h-.336v-1.853h.336a1.3481,1.3481,0,0,1,.8633.242.8217.8217,0,0,1,.3.681.8356.8356,0,0,1-.3.686A1.3421,1.3421,0,0,1,17.7367,121.017Zm3.497.49a1.47,1.47,0,0,1-.4224.065,1.1985,1.1985,0,0,1-.5691-.13.9923.9923,0,0,1-.0262-1.746,1.0568,1.0568,0,0,1,.5273-.13,1.0414,1.0414,0,0,1,.5215.129.9592.9592,0,0,1,.36.355,1.0068,1.0068,0,0,1,.132.517v.168H20.2422a.5079.5079,0,0,0,.1932.261.5588.5588,0,0,0,.3293.1.7665.7665,0,0,0,.335-.065.9723.9723,0,0,0,.2418-.167l.3379.402A1.3727,1.3727,0,0,1,21.2337,121.507Zm-.0515-1.081h-.9517a.4946.4946,0,0,1,.1719-.272.4814.4814,0,0,1,.31-.106.4632.4632,0,0,1,.303.104A.4963.4963,0,0,1,21.1822,120.426Zm2.3084,1.071a1.1951,1.1951,0,0,1-.4283.075,1.14,1.14,0,0,1-.5506-.13.9951.9951,0,0,1-.3817-.357,1.0222,1.0222,0,0,1,0-1.032.9951.9951,0,0,1,.3817-.357,1.14,1.14,0,0,1,.5506-.13,1.1951,1.1951,0,0,1,.4283.075,1.0012,1.0012,0,0,1,.3389.21l-.3943.369a.4552.4552,0,0,0-.3729-.172.4652.4652,0,0,0-.3535.149.5648.5648,0,0,0,0,.744.4617.4617,0,0,0,.3535.149.4552.4552,0,0,0,.3729-.172l.3943.369A1.0012,1.0012,0,0,1,23.4906,121.497Z" transform="translate(24.2277)"/><path class="cls-7" d="M-2.9493,119.585v1.949H-3.532V118.64h.5905l1.4955,1.945V118.64h.5943v2.894h-.6Zm4.0359,1.857a1.07,1.07,0,0,1-.5321.13,1.0759,1.0759,0,0,1-.5332-.13.9735.9735,0,0,1-.369-.357,1.0536,1.0536,0,0,1,0-1.032.9735.9735,0,0,1,.369-.357,1.0759,1.0759,0,0,1,.5332-.13,1.07,1.07,0,0,1,.5321.13.9753.9753,0,0,1,.3681.357,1.0536,1.0536,0,0,1,0,1.032A.9753.9753,0,0,1,1.0866,121.442Zm-.5321-.352a.4651.4651,0,0,1-.3535-.149.5645.5645,0,0,1,0-.744.4651.4651,0,0,1,.3535-.149.465.465,0,0,1,.3534.149.5645.5645,0,0,1,0,.744A.465.465,0,0,1,.5545,121.09Zm2.6608-1.486h.5885l-.7672,1.93H2.4928l-.806-1.93h.6079l.3515.94a1.9841,1.9841,0,0,1,.0612.214q.0341.141.0534.255h.0078c.0155-.076.0353-.16.0592-.253s.045-.165.0632-.216Z" transform="translate(24.2277)"/><path class="cls-7" d="M58.092,121.534v-1.227h1.1226v-.521H58.092v-.625h1.2v-.521H57.4977v2.894Zm2.6065.038a1.47,1.47,0,0,0,.4224-.065,1.3727,1.3727,0,0,0,.4457-.241l-.3379-.402a.9723.9723,0,0,1-.2418.167.7665.7665,0,0,1-.335.065.5526.5526,0,0,1-.3293-.101.5016.5016,0,0,1-.1932-.26h1.5149v-.168a1.0068,1.0068,0,0,0-.132-.517.9592.9592,0,0,0-.36-.355,1.0414,1.0414,0,0,0-.5215-.129,1.0568,1.0568,0,0,0-.5273.13.9714.9714,0,0,0-.3661.355.9915.9915,0,0,0,.3923,1.391A1.1985,1.1985,0,0,0,60.6985,121.572Zm-.5808-1.146h.9517a.4963.4963,0,0,0-.167-.274.4632.4632,0,0,0-.303-.104.4759.4759,0,0,0-.31.106A.4946.4946,0,0,0,60.1177,120.426Zm3.0746,1.146a.9159.9159,0,0,0,.4875-.13.9254.9254,0,0,0,.336-.357,1.1488,1.1488,0,0,0,0-1.032.9254.9254,0,0,0-.336-.357.9159.9159,0,0,0-.4875-.13.9253.9253,0,0,0-.34.061.9073.9073,0,0,0-.28.168V118.64h-.5593v2.894h.5282l.0136-.209a.8615.8615,0,0,0,.2855.183A.9477.9477,0,0,0,63.1923,121.572Zm-.48-.631a.4937.4937,0,0,0,.7069,0,.5645.5645,0,0,0,0-.744.4937.4937,0,0,0-.7069,0,.5645.5645,0,0,0,0,.744Z" transform="translate(24.2277)"/><path class="cls-7" d="M78.126,120.754c.004.231.005.49.005.78h-.594V118.64h.773l.641,1.364c.03.074.059.149.088.225s.058.15.085.226c.027-.078.056-.156.086-.233s.062-.15.094-.218l.639-1.364h.758v2.894h-.594q0-.53.009-1.032c.007-.336.02-.673.041-1.01-.034.089-.069.177-.106.265s-.075.173-.115.258l-.492,1.046h-.652l-.49-1.042c-.04-.098-.079-.194-.116-.288s-.075-.19-.111-.285c.014.224.026.44.034.649S78.123,120.524,78.126,120.754Zm4.031.753a.877.877,0,0,1-.343.065.72.72,0,0,1-.483-.158.5107.5107,0,0,1-.187-.411.571.571,0,0,1,.111-.345.7576.7576,0,0,1,.308-.241,1.0681,1.0681,0,0,1,.449-.089,1.4239,1.4239,0,0,1,.168.01c.059.006.118.014.178.025q-.0645-.315-.461-.315a.794.794,0,0,0-.472.176l-.192-.469a2.0112,2.0112,0,0,1,.398-.143,1.6174,1.6174,0,0,1,.373-.046,1.0684,1.0684,0,0,1,.489.105.7746.7746,0,0,1,.321.297.8665.8665,0,0,1,.115.451v1.115h-.47l-.037-.207A.7874.7874,0,0,1,82.157,121.507Zm-.182-.417a.31.31,0,0,1-.197-.059.1873.1873,0,0,1-.075-.155.183.183,0,0,1,.092-.164.4835.4835,0,0,1,.258-.058,1.0007,1.0007,0,0,1,.162.013,1.12,1.12,0,0,1,.154.037v.039a.32.32,0,0,1-.113.247A.41.41,0,0,1,81.975,121.09Zm1.979-.407v.851h-.559v-1.93h.489l.027.276a.669.669,0,0,1,.583-.314.9623.9623,0,0,1,.26.038l-.077.481a.6982.6982,0,0,0-.222-.037.45.45,0,0,0-.363.165A.714.714,0,0,0,83.954,120.683Z" transform="translate(24.2277)"/><rect class="cls-8" x="24.2277" y="113.272" width="81" height="0.3592"/><rect class="cls-8" x="64.7277" y="110.398" width="0.3616" height="2.8738"/><rect class="cls-8" x="44.4777" y="110.398" width="0.3616" height="2.8738"/><rect class="cls-8" x="84.9777" y="110.398" width="0.3616" height="2.8738"/></g><rect class="cls-9" x="24.2277" y="139" width="81" height="53" rx="4"/><g class="cls-10"><path class="cls-11" d="M29.16,172.598v.888H23.1979v-.888l2.1609-.314,5.8841-18.4h2.7077l6.2486,18.478,2.0829.236v.888H33.4039v-.888l2.3172-.262-1.5882-5.044H28.1447l-1.432,4.966Zm-.7551-6.221h5.4415l-2.8379-8.939Zm26.4783,7.554a3.1928,3.1928,0,0,0,3.3066-2.039l-.4426-.366c-.4947.784-.7811.993-1.1716.993-.4947,0-.8071-.34-.8071-1.333v-7.031c0-3.789-1.4841-5.384-5.1812-5.384-4.0355,0-6.3006,1.568-6.5089,4.025a1.69,1.69,0,0,0,1.7965,1.333c.9893,0,1.8746-.705,1.9527-2.483l.1822-1.855a5.2937,5.2937,0,0,1,1.0935-.105c1.9787,0,2.6036.81,2.6036,3.528v1.595h0c-.9112.235-1.8224.47-2.5513.679-4.1918,1.229-5.5456,2.51-5.5456,4.888a3.4689,3.4689,0,0,0,3.8012,3.555c2.0828,0,3.0722-.811,4.4-2.274A2.888,2.888,0,0,0,54.8833,173.931Zm-7.3941-4.078c0,1.568.729,2.3,1.9527,2.3a3.4338,3.4338,0,0,0,2.2651-1.202v-5.436a12.0643,12.0643,0,0,0-1.432.444A3.9541,3.9541,0,0,0,47.4892,169.853Z" transform="translate(24.2277)"/><path class="cls-12" d="M22.7812,175.301v1.452H57.1817v-1.452Z" transform="translate(24.2277)"/><g class="cls-13"><path class="cls-12" d="M-24.2277,164.774v1.452h34.4v-1.452Z" transform="translate(24.2277)"/></g><g class="cls-13"><path class="cls-12" d="M69.79,164.774v1.452H104.191v-1.452Z" transform="translate(24.2277)"/></g></g><rect class="cls-4" x="114.2277" width="81" height="175" rx="4"/><rect class="cls-14" x="114.2277" y="65.9421" width="81" height="0.3623"/><path class="cls-15" d="M150.25,32.971a19.75,19.75,0,1,1-19.75-19.79A19.77,19.77,0,0,1,150.25,32.971Z" transform="translate(24.2277)"/><path class="cls-16" d="M122.254,51.2736l1.29-2.932A17.3,17.3,0,1,0,113.203,32.5H110a20.4851,20.4851,0,1,1,12.254,18.7736Z" transform="translate(24.2277)"/><path class="cls-17" d="M122.127,37.1264a3.7026,3.7026,0,0,0,1.57-.3113,2.4821,2.4821,0,0,0,1.048-.8719,2.279,2.279,0,0,0,.376-1.302,2.305,2.305,0,0,0-.398-1.3446,2.4579,2.4579,0,0,0-1.105-.869,2.1968,2.1968,0,0,0,.896-.77,2.17,2.17,0,0,0-.014-2.307,2.2279,2.2279,0,0,0-.95-.7784,3.4068,3.4068,0,0,0-1.423-.2774,3.4482,3.4482,0,0,0-1.433.2774,2.2279,2.2279,0,0,0-.952.7784,2.0362,2.0362,0,0,0-.339,1.1691,2.0121,2.0121,0,0,0,.325,1.1407,2.2,2.2,0,0,0,.901.7671,2.4624,2.4624,0,0,0-1.099.869,2.305,2.305,0,0,0-.398,1.3446,2.279,2.279,0,0,0,.376,1.302,2.4821,2.4821,0,0,0,1.048.8719A3.7042,3.7042,0,0,0,122.127,37.1264Zm0-5.4347a1.0824,1.0824,0,0,1-.777-.28,1.0709,1.0709,0,0,1,0-1.48,1.2185,1.2185,0,0,1,1.548,0,1.0735,1.0735,0,0,1,0,1.48A1.0775,1.0775,0,0,1,122.127,31.6917Zm-.981,3.5779a1.6283,1.6283,0,0,0,1.961,0,1.189,1.189,0,0,0,0-1.7239,1.64,1.64,0,0,0-1.961,0,1.189,1.189,0,0,0,0,1.7239Zm7.879,1.687,2.888-7.2917v-1.2h-5.492v1.5285h3.486l-2.746,6.9633Zm7.295-4.6847a2.4133,2.4133,0,0,1-1.012.19,2.21,2.21,0,0,1-1.268-.3227,1.8572,1.8572,0,0,1-.678-.7926,2.1194,2.1194,0,0,1,0-1.8229,1.8584,1.8584,0,0,1,.678-.7926,2.21,2.21,0,0,1,1.268-.3227,2.4149,2.4149,0,0,1,1.012.19,1.8692,1.8692,0,0,1,.666.4925,1.9333,1.9333,0,0,1,.368.6567,2.1415,2.1415,0,0,1,0,1.3729,1.9285,1.9285,0,0,1-.368.6595A1.8692,1.8692,0,0,1,136.32,32.2719Zm-.294,4.69,5.407-8.5089H139.89l-5.401,8.5089Zm-1.232-5.933a.6116.6116,0,0,0,.514.2434.6178.6178,0,0,0,.52-.2434,1.0429,1.0429,0,0,0,0-1.1889.6178.6178,0,0,0-.52-.2434.6116.6116,0,0,0-.514.2434,1.0429,1.0429,0,0,0,0,1.1889Zm5.808,5.9839a2.2154,2.2154,0,0,0,1.269-.3227,1.8931,1.8931,0,0,0,.681-.7925,2.1021,2.1021,0,0,0,.096-1.5937,1.9632,1.9632,0,0,0-.368-.66,1.8543,1.8543,0,0,0-.666-.4954,2.7929,2.7929,0,0,0-2.023,0,1.8378,1.8378,0,0,0-.664.4954,1.9866,1.9866,0,0,0-.364.66,2.2189,2.2189,0,0,0-.113.6822,2.2527,2.2527,0,0,0,.206.9115,1.8575,1.8575,0,0,0,.678.7925A2.21,2.21,0,0,0,140.602,37.0132Zm-.517-1.4294a.679.679,0,0,0,1.037,0,.9388.9388,0,0,0,.187-.5916.96.96,0,0,0-.187-.6.6738.6738,0,0,0-1.037,0,.97.97,0,0,0-.183.6A.9487.9487,0,0,0,140.085,35.5838Z" transform="translate(24.2277)"/><path class="cls-18" d="M123.425,85.336a10.442,10.442,0,0,1-2.525,2.0168l-1.299-1.479a10.2825,10.2825,0,0,0,1.808-1.3233,7.2041,7.2041,0,0,0,1.292-1.55,3.5237,3.5237,0,0,1-.427.0779,4.1544,4.1544,0,0,1-.505.0283,3.9094,3.9094,0,0,1-1.886-.4459,3.3381,3.3381,0,0,1-1.296-1.2242,3.6324,3.6324,0,0,1,.022-3.609,3.44,3.44,0,0,1,1.349-1.2455,4.1334,4.1334,0,0,1,1.959-.4529,3.9213,3.9213,0,0,1,1.996.4918,3.3629,3.3629,0,0,1,1.317,1.3835,4.4421,4.4421,0,0,1,.466,2.0876,6.6669,6.6669,0,0,1-.597,2.7067A9.3689,9.3689,0,0,1,123.425,85.336Zm-2.673-4.3733a1.4824,1.4824,0,0,0,1.13.4741,1.5137,1.5137,0,0,0,1.148-.4812,1.8664,1.8664,0,0,0,.007-2.4343,1.5846,1.5846,0,0,0-2.278.0035,1.7311,1.7311,0,0,0-.452,1.2278A1.7007,1.7007,0,0,0,120.752,80.9627Zm10.1,6.2061a4.6291,4.6291,0,0,0,1.963-.3892,3.1057,3.1057,0,0,0,1.31-1.09,3.0693,3.0693,0,0,0-.028-3.3083,3.0676,3.0676,0,0,0-1.381-1.0862,2.7465,2.7465,0,0,0,1.12-.9624,2.7126,2.7126,0,0,0-.018-2.8837,2.7818,2.7818,0,0,0-1.186-.9731,4.2681,4.2681,0,0,0-1.78-.3467,4.3111,4.3111,0,0,0-1.791.3467,2.7817,2.7817,0,0,0-1.19.9731,2.5481,2.5481,0,0,0-.423,1.4613,2.5172,2.5172,0,0,0,.406,1.4259,2.7415,2.7415,0,0,0,1.126.9589,3.0745,3.0745,0,0,0-1.374,1.0862,3.0747,3.0747,0,0,0-.028,3.3083,3.1057,3.1057,0,0,0,1.31,1.09A4.6337,4.6337,0,0,0,130.852,87.1688Zm-.971-7.1438a1.5112,1.5112,0,0,0,1.935,0,1.3393,1.3393,0,0,0,0-1.8505,1.5233,1.5233,0,0,0-1.935,0,1.3393,1.3393,0,0,0,0,1.8505Zm.971,5.2331a1.78,1.78,0,0,1-1.226-.41,1.4873,1.4873,0,0,1,0-2.1548,2.0489,2.0489,0,0,1,2.451,0,1.4851,1.4851,0,0,1,0,2.1548A1.7775,1.7775,0,0,1,130.852,85.2581Zm7.401.0283v1.67h-2.034V76.3417h2.034v6.44a7.1938,7.1938,0,0,1,.467-.6475q.2535-.3148.557-.6687l1.371-1.5851h2.224l-2.712,3.1773,3.221,3.8992h-2.493l-2.02-2.3919Z" transform="translate(24.2277)"/><path class="cls-1" d="M104.1022,102.174h0a2.5313,2.5313,0,0,1,2.5313,2.5313v.01a2.5313,2.5313,0,0,1-2.5313,2.5313h0a2.5313,2.5313,0,0,1-2.5312-2.5313v-.01A2.5313,2.5313,0,0,1,104.1022,102.174Z" transform="translate(24.2277)"/><path class="cls-19" d="M114.5942,102.174h42.2981a2.5362,2.5362,0,0,1,2.5362,2.5362h0a2.5363,2.5363,0,0,1-2.5362,2.5363H114.5942a2.5363,2.5363,0,0,1-2.5362-2.5363h0A2.5362,2.5362,0,0,1,114.5942,102.174Z" transform="translate(24.2277)"/><path class="cls-1" d="M104.1022,114.493h0a2.5313,2.5313,0,0,1,2.5313,2.5312v.01a2.5313,2.5313,0,0,1-2.5313,2.5313h0a2.5313,2.5313,0,0,1-2.5312-2.5313v-.01A2.5313,2.5313,0,0,1,104.1022,114.493Z" transform="translate(24.2277)"/><path class="cls-19" d="M114.5942,114.493h24.941a2.5362,2.5362,0,0,1,2.5362,2.5362h0a2.5363,2.5363,0,0,1-2.5362,2.5363h-24.941a2.5363,2.5363,0,0,1-2.5362-2.5363h0A2.5362,2.5362,0,0,1,114.5942,114.493Z" transform="translate(24.2277)"/><path class="cls-1" d="M104.1022,126.812h0a2.5313,2.5313,0,0,1,2.5313,2.5312v.01a2.5313,2.5313,0,0,1-2.5313,2.5313h0a2.5313,2.5313,0,0,1-2.5312-2.5313v-.01A2.5313,2.5313,0,0,1,104.1022,126.812Z" transform="translate(24.2277)"/><rect class="cls-19" x="136.2857" y="126.812" width="47.3705" height="5.0725" rx="2.5362"/><path class="cls-1" d="M104.1022,139.13h0a2.5313,2.5313,0,0,1,2.5313,2.5313v.01a2.5313,2.5313,0,0,1-2.5313,2.5313h0a2.5313,2.5313,0,0,1-2.5312-2.5313v-.01A2.5313,2.5313,0,0,1,104.1022,139.13Z" transform="translate(24.2277)"/><rect class="cls-19" x="136.2857" y="139.13" width="28.567" height="5.0725" rx="2.5362"/><path class="cls-1" d="M104.1022,151.449h0a2.5313,2.5313,0,0,1,2.5313,2.5313v.01a2.5313,2.5313,0,0,1-2.5313,2.5313h0a2.5313,2.5313,0,0,1-2.5312-2.5313v-.01A2.5313,2.5313,0,0,1,104.1022,151.449Z" transform="translate(24.2277)"/><rect class="cls-19" x="136.2857" y="151.449" width="47.3705" height="5.0725" rx="2.5362"/></svg>